<svg xmlns="http://www.w3.org/2000/svg" viewBox="0 0 117.13 103.23">
    <defs>
        <style>.cls-1{fill:#f7f7f4;}.cls-1,.cls-2,.cls-3,.cls-4,.cls-6,.cls-7,.cls-8{stroke:#ccc;stroke-linejoin:bevel;stroke-width:0.38px;}.cls-2{fill:#efeeea;}.cls-3,.cls-5{fill:#fff;}.cls-4{fill:#ffd242;}.cls-6{fill:#ffc91d;}.cls-7{fill:#3775a9;}.cls-8{fill:#2f6491;}</style>
    </defs>
    <g id="2" data-name="2">
        <g id="12" data-name="1">
            <path class="cls-1" d="M16.85,39.64l16.6,6,16.83-6.13-16.59-6ZM33.52,26l16.59,6L67,25.91l-16.59-6Z"/>
            <path class="cls-2" d="M33.52,26l16.59,6v19.5l-16.59-6Z"/>
            <path class="cls-1" d="M.19,65.39l16.59,6L33.62,65.3,17,59.26Z"/>
            <path class="cls-2" d="M.19,65.39l16.59,6v19.5l-16.59-6Z"/>
            <path class="cls-1" d="M.19,37.66l16.59,6,16.84-6.13L17,31.53Z"/>
            <path class="cls-3" d="M16.78,43.7V63.2l16.84-6.13V37.57Z"/>
            <path class="cls-2" d="M.19,37.66l16.59,6V63.2l-16.59-6Z"/>
            <path class="cls-2" d="M16.85,71.45l16.6,6V97l-16.6-6Z"/>
            <path class="cls-1" d="M16.85,51.76l16.6,6,16.83-6.12-16.59-6Z"/>
            <path class="cls-2" d="M16.85,51.76l16.6,6V77.3l-16.6-6Z"/>
            <path class="cls-3" d="M100.11,65.37v19.5l16.83-6.13V59.24Z"/>
            <path class="cls-4" d="M83.44,71.43v19.5l16.84-6.13V65.3Z"/>
            <path class="cls-5" d="M97.23,76.18A5.28,5.28,0,0,1,94,80.8h0a2.25,2.25,0,0,1-3.23-2.26A5.28,5.28,0,0,1,94,73.92h0a2.25,2.25,0,0,1,3.24,2.26h0Z"/>
            <path class="cls-4" d="M66.78,77.49V97l16.83-6.13V71.36Z"/>
            <path class="cls-3" d="M50.11,83.55v19.5L67,96.92V77.42Z"/>
            <path class="cls-2" d="M33.52,77.51l16.59,6v19.5L33.52,97Z"/>
            <path class="cls-4" d="M100.11,45.68v19.5l16.83-6.13V39.55Z"/>
            <path class="cls-6" d="M83.51,19.94l16.6,6,16.83-6.13-16.59-6Z"/>
            <path class="cls-4" d="M100.11,26v19.5l16.83-6.13V19.85ZM83.44,51.74v19.5l16.84-6.13V45.61Z"/>
            <path class="cls-7" d="M83.44,32v19.5l16.84-6.13V25.91Z"/>
            <path class="cls-8" d="M66.85,6.31l16.59,6,16.84-6.13L83.69.18Z"/>
            <path class="cls-7" d="M83.44,12.34V31.85l16.84-6.13V6.22Z"/>
            <path class="cls-4" d="M66.78,57.79V77.3l16.83-6.13V51.67Z"/>
            <path class="cls-7" d="M66.78,38.1V57.6l16.83-6.13V32ZM50.11,63.85V83.36L67,77.23V57.73Z"/>
            <path class="cls-8" d="M33.52,57.82l16.59,6V83.36l-16.59-6Zm0-19.7,16.59,6L67,38,50.36,32Z"/>
            <path class="cls-7" d="M50.11,44.16v19.5L67,57.53V38Z"/>
            <path class="cls-8" d="M33.52,38.12l16.59,6v19.5l-16.59-6ZM50.18,12.37l16.6,6,16.83-6.13L67,6.24Z"/>
            <path class="cls-7" d="M66.78,18.41v19.5l16.83-6.13V12.28Z"/>
            <path class="cls-8" d="M50.18,12.37l16.6,6v19.5l-16.6-6Z"/>
            <path class="cls-5" d="M76.3,24.67a5.27,5.27,0,0,1-3.24,4.62h0A2.25,2.25,0,0,1,69.83,27h0a5.26,5.26,0,0,1,3.23-4.62h0a2.26,2.26,0,0,1,3.24,2.27Z"/>
        </g>
    </g>
</svg>